<svg width="113" height="34" viewBox="0 0 113 34" fill="none" xmlns="http://www.w3.org/2000/svg">
<path d="M72.7396 28.3072L82.0677 31.3072L89.9229 23.3072L99.742 30.3072L110.052 28.3072L105.633 13.8072L89.9229 18.8072L81.0858 13.8072L71.7577 15.3072L72.7396 28.3072Z" fill="#F1A501"/>
<path d="M0 23.371V21.209L6.0073 20.105V23.095C6.03741 24.7203 6.44392 25.947 7.22683 26.775C8.03984 27.5723 9.10881 27.971 10.4337 27.971C11.7285 27.971 12.7523 27.5417 13.5051 26.683C14.288 25.8243 14.6795 24.6743 14.6795 23.233V0.69299H20.9126V23.233C20.9126 26.2383 19.934 28.7837 17.9767 30.869C16.0195 32.9543 13.5202 33.997 10.4789 33.997C7.31716 33.997 4.77272 33.031 2.84556 31.099C0.948521 29.1363 0 26.5603 0 23.371Z" fill="black"/>
<path d="M22.3449 27.143C22.3449 25.211 22.9622 23.6623 24.1968 22.497C25.4314 21.3317 27.0273 20.5957 28.9846 20.289L34.4499 19.461C35.564 19.3077 36.1211 18.771 36.1211 17.851C36.1211 16.9923 35.7898 16.287 35.1274 15.735C34.495 15.183 33.5766 14.907 32.3722 14.907C31.1075 14.907 30.0987 15.2597 29.3459 15.965C28.6232 16.6703 28.2167 17.5443 28.1264 18.587L22.7966 17.437C23.0074 15.4743 23.9559 13.7417 25.6422 12.239C27.3284 10.7363 29.5567 9.98499 32.327 9.98499C35.6393 9.98499 38.0783 10.7977 39.6441 12.423C41.21 14.0177 41.9929 16.0723 41.9929 18.587V29.719C41.9929 31.0683 42.0832 32.2643 42.2639 33.307H36.7534C36.6029 32.6323 36.5276 31.7277 36.5276 30.593C35.1123 32.8317 32.9292 33.951 29.9783 33.951C27.6898 33.951 25.8379 33.2763 24.4226 31.927C23.0375 30.5777 22.3449 28.983 22.3449 27.143ZM31.243 29.397C32.6582 29.397 33.8175 28.9983 34.7209 28.201C35.6543 27.373 36.1211 26.0237 36.1211 24.153V23.141L31.1075 23.923C29.2706 24.199 28.3522 25.1497 28.3522 26.775C28.3522 27.511 28.6082 28.1397 29.1201 28.661C29.632 29.1517 30.3396 29.397 31.243 29.397Z" fill="black"/>
<path d="M65.5302 0.00299072V29.213C65.5302 30.7157 65.5904 32.0803 65.7108 33.307H59.9745C59.824 32.5403 59.7487 31.6663 59.7487 30.685C59.2368 31.6357 58.4238 32.4023 57.3096 32.985C56.2256 33.5677 54.9609 33.859 53.5156 33.859C50.3538 33.859 47.7492 32.7397 45.7016 30.501C43.6841 28.2317 42.6753 25.3797 42.6753 21.945C42.6753 18.6023 43.669 15.7963 45.6564 13.527C47.6739 11.2577 50.2334 10.123 53.3349 10.123C56.5267 10.123 58.6195 11.0583 59.6132 12.929V0.00299072H65.5302ZM48.7278 21.945C48.7278 23.9383 49.2397 25.5177 50.2635 26.683C51.2873 27.8177 52.6122 28.385 54.2382 28.385C55.8342 28.385 57.144 27.8023 58.1678 26.637C59.1916 25.4717 59.7035 23.8923 59.7035 21.899C59.7035 19.9363 59.1916 18.403 58.1678 17.299C57.144 16.1643 55.8342 15.597 54.2382 15.597C52.6423 15.597 51.3174 16.1643 50.2635 17.299C49.2397 18.4337 48.7278 19.9823 48.7278 21.945Z" fill="black"/>
<path d="M74.3957 26.729C75.5099 27.8637 76.8498 28.431 78.4156 28.431C79.9815 28.431 81.3064 27.8637 82.3904 26.729C83.5045 25.5943 84.0616 24.015 84.0616 21.991C84.0616 19.967 83.5045 18.3877 82.3904 17.253C81.3064 16.1183 79.9815 15.551 78.4156 15.551C76.8498 15.551 75.5099 16.1183 74.3957 17.253C73.3117 18.3877 72.7697 19.967 72.7697 21.991C72.7697 24.015 73.3117 25.5943 74.3957 26.729ZM70.0596 13.389C72.2879 11.1197 75.0732 9.98499 78.4156 9.98499C81.758 9.98499 84.5283 11.1197 86.7265 13.389C88.9548 15.6583 90.0689 18.5257 90.0689 21.991C90.0689 25.4563 88.9548 28.3237 86.7265 30.593C84.5283 32.8623 81.758 33.997 78.4156 33.997C75.0732 33.997 72.2879 32.8623 70.0596 30.593C67.8615 28.3237 66.7624 25.4563 66.7624 21.991C66.7624 18.5257 67.8615 15.6583 70.0596 13.389Z" fill="black"/>
<path d="M97.1595 26.729C98.2736 27.8637 99.6136 28.431 101.179 28.431C102.745 28.431 104.07 27.8637 105.154 26.729C106.268 25.5943 106.825 24.015 106.825 21.991C106.825 19.967 106.268 18.3877 105.154 17.253C104.07 16.1183 102.745 15.551 101.179 15.551C99.6136 15.551 98.2736 16.1183 97.1595 17.253C96.0755 18.3877 95.5335 19.967 95.5335 21.991C95.5335 24.015 96.0755 25.5943 97.1595 26.729ZM92.8234 13.389C95.0517 11.1197 97.837 9.98499 101.179 9.98499C104.522 9.98499 107.292 11.1197 109.49 13.389C111.719 15.6583 112.833 18.5257 112.833 21.991C112.833 25.4563 111.719 28.3237 109.49 30.593C107.292 32.8623 104.522 33.997 101.179 33.997C97.837 33.997 95.0517 32.8623 92.8234 30.593C90.6253 28.3237 89.5262 25.4563 89.5262 21.991C89.5262 18.5257 90.6253 15.6583 92.8234 13.389Z" fill="black"/>
</svg>
