<svg width="300" height="12" viewBox="0 0 300 12" fill="none" xmlns="http://www.w3.org/2000/svg">
<mask id="mask0_1_40" style="mask-type:alpha" maskUnits="userSpaceOnUse" x="0" y="0" width="300" height="12">
<rect width="300" height="12" fill="#C4C4C4"/>
</mask>
<g mask="url(#mask0_1_40)">
<path d="M55.9517 -1.91569L56.8608 -2.06852L55.0917 -2.28763L55.9397 -2.44802C56.7902 -2.44656 57.892 -2.20623 58.4916 -2.33393C58.5648 -2.45757 57.6388 -2.49725 57.4025 -2.59575C57.1934 -2.69672 57.0228 -2.79703 56.8926 -2.89548C57.3557 -2.89442 57.8649 -2.87061 58.3899 -2.82544C59.096 -2.75168 59.7886 -2.71581 60.3913 -2.72182C61.6237 -2.7019 62.8142 -2.72177 64.1541 -2.7174L63.7083 -3.01495L65.4351 -2.94534C65.6181 -2.92267 65.8362 -2.95913 66.0161 -2.93108C67.5126 -2.69381 68.1458 -2.82311 68.8642 -2.93032C69.0115 -2.95805 69.1889 -2.97877 69.3918 -2.99191C71.3882 -2.93507 73.1883 -2.60249 74.9862 -2.43175C75.3246 -2.38815 75.6491 -2.3322 75.9369 -2.26784C76.5622 -2.14274 77.2578 -2.0406 77.96 -1.97076C78.6622 -1.90093 79.3485 -1.86564 79.9564 -1.8681C81.3006 -1.87087 82.8192 -1.78812 84.3653 -1.62787C84.8251 -1.57508 85.2851 -1.54027 85.7162 -1.52563C86.1473 -1.51098 86.5399 -1.51684 86.8688 -1.54284L87.9141 -1.37298C88.3673 -1.4419 88.9418 -1.47972 89.6029 -1.48413C90.2641 -1.48854 90.998 -1.45945 91.7602 -1.39864C92.5724 -1.33267 93.3973 -1.28819 94.24 -1.21844C95.9808 -1.0851 97.6749 -1.00354 99.2698 -0.976322C101.645 -0.895651 103.965 -0.833278 106.362 -0.732703C107.861 -0.684156 109.321 -0.657455 110.734 -0.652739C112.427 -0.63375 114.259 -0.541824 116.14 -0.381399V-0.381399C116.051 -0.230883 115.226 -0.27535 114.672 -0.280443C112.886 -0.30546 111.058 -0.370287 109.221 -0.418987C108.393 -0.437996 107.588 -0.445197 106.81 -0.440534C105.511 -0.446774 104.14 -0.48688 102.723 -0.560165C100.484 -0.640805 98.3169 -0.679567 96.2433 -0.676058C96.0807 -0.670096 95.9318 -0.659532 95.7989 -0.644541C95.7712 -0.631557 95.7658 -0.615184 95.783 -0.596994C95.8003 -0.578805 95.8398 -0.5594 95.8977 -0.540649C95.9556 -0.521897 96.0299 -0.504426 96.1137 -0.489899C96.1974 -0.475373 96.2877 -0.464277 96.3759 -0.457684C97.1994 -0.35568 98.084 -0.246124 98.8607 -0.230712C98.8907 -0.22956 98.9227 -0.22693 98.9543 -0.22301C98.986 -0.21909 99.0165 -0.213978 99.0437 -0.208045C100.782 0.00729711 102.212 -0.0291439 103.566 0.00589118C105.815 0.10058 107.983 0.14481 110.037 0.137911C110.347 0.13838 110.682 0.15069 111.03 0.174394C113.181 0.270483 115.193 0.28123 116.97 0.206149C117.702 0.187128 118.382 0.144426 119.168 0.143712C119.653 0.140773 120.074 0.113524 120.407 0.0635947C120.741 0.0136655 120.979 -0.057911 121.109 -0.14683C121.44 -0.100015 121.777 -0.0582929 122.115 -0.0221629C122.317 -0.00150411 122.511 0.00398322 122.657 -0.00682725C122.803 -0.0176377 122.891 -0.0439372 122.903 -0.0804068C122.963 -0.182543 122.503 -0.233835 122.103 -0.277572C122.344 -0.299477 122.616 -0.312363 122.911 -0.31592C124.577 -0.339258 126.364 -0.311713 128.233 -0.23389C129.683 -0.140739 130.842 -0.216558 132.368 -0.085195C132.551 -0.0625274 132.702 -0.0957978 132.87 -0.103786C133.31 -0.145854 133.857 -0.155309 134.464 -0.131325C135.072 -0.107342 135.722 -0.0506428 136.358 0.0338543C137.149 -0.196994 138.859 0.0667298 140.122 0.0904311C140.511 0.207829 140.065 0.18719 140.046 0.219444C140.027 0.251697 140.046 0.219437 139.893 0.200547C138.632 0.366803 136.905 0.403056 134.953 0.30421C134.592 0.30462 134.248 0.312194 133.925 0.326859C133.435 0.347615 132.882 0.345543 132.291 0.320732C131.646 0.30251 131.053 0.311164 130.541 0.346277C130.246 0.345705 129.997 0.363295 129.817 0.397427C129.636 0.431559 129.53 0.481128 129.508 0.541525C129.705 0.588086 129.923 0.63069 130.154 0.667646C131.36 0.813561 132.562 0.873959 133.524 0.836956C135.199 0.773201 137.192 0.835417 138.973 0.813651C140.177 0.804834 141.458 0.82995 142.793 0.888529C142.793 0.888529 142.757 0.94766 142.754 0.953035C142.912 0.978637 143.078 0.999179 143.242 1.01348C143.242 1.01348 143.242 1.01348 143.258 0.986606C143.185 0.960795 143.086 0.936514 142.972 0.916573L142.576 0.867458C142.845 0.854677 143.097 0.816622 143.378 0.839873C143.97 0.883069 144.535 0.901305 145.041 0.893497C145.546 0.88569 145.981 0.851995 146.319 0.794438C146.918 0.720671 147.663 0.687124 148.506 0.695965C149.151 0.687912 149.774 0.670603 150.37 0.644125C150.37 0.644125 150.408 0.579624 150.69 0.54534C150.423 0.503056 150.144 0.468528 149.867 0.44334C148.66 0.380412 147.45 0.322859 146.264 0.279836C145.827 0.275188 145.416 0.282397 145.04 0.301321C143.996 0.323466 142.824 0.292036 141.591 0.208863C141.591 0.208863 141.347 0.178641 141.225 0.163529C141.571 0.0217347 142.764 0.163688 143.246 0.0676609C143.54 0.0694089 144.057 0.0814843 144.039 0.0562041C143.999 0.0224694 143.994 -0.00887016 144.025 -0.0355658C144.056 -0.0622614 144.122 -0.0836536 144.218 -0.0982057C144.314 -0.112758 144.438 -0.120114 144.582 -0.11974C144.725 -0.119366 144.883 -0.11127 145.046 -0.0960413C146.404 -0.0136583 147.683 0.00925143 148.804 -0.0287152C149.229 -0.0279822 149.706 -0.00356494 150.128 0.00254365C150.386 0.00990129 150.622 0.00580898 150.823 -0.00950666C151.842 -0.122305 153.215 -0.130542 154.733 -0.0329823C155.467 0.00209291 156.153 0.00678335 156.755 -0.0191505C157.183 -0.023793 157.365 0.0564036 157.67 0.0941829L158.965 0.173822L157.302 0.273611C157.657 0.502299 157.94 0.577705 158.521 0.591952C159.368 0.613467 160.194 0.623187 160.992 0.621051C161.583 0.619172 162.07 0.569922 162.87 0.657397C163.011 0.671665 163.147 0.676283 163.255 0.670476C164.191 0.592818 165.318 0.574995 166.56 0.618224C167.203 0.472802 168.298 0.614191 169.311 0.728111C169.638 0.61857 169.045 0.568286 168.692 0.501449C169.539 0.50829 170.393 0.504384 171.267 0.520379C171.531 0.514555 171.831 0.524516 172.146 0.549477C172.461 0.574437 172.781 0.613714 173.081 0.664236C173.228 0.696881 173.404 0.72145 173.574 0.732841C173.744 0.744233 173.895 0.741575 173.994 0.725419C174.448 0.677772 175.175 0.721657 175.551 0.641174C175.684 0.622664 175.875 0.62008 176.088 0.633874C176.302 0.647667 176.525 0.676946 176.717 0.71646V0.71646C176.507 0.728789 176.319 0.748203 176.159 0.774275C175.585 0.858968 175.796 1.00048 176.525 1.20622C177.645 1.1949 178.789 1.19812 179.827 1.15934C180.406 1.12453 181.115 1.13542 181.875 1.19076C182.634 1.24611 183.414 1.34373 184.127 1.47265C184.386 1.52222 184.68 1.55655 184.951 1.56883C185.223 1.58111 185.453 1.57043 185.594 1.53892C185.683 1.50247 185.71 1.45634 185.674 1.40453L184.942 1.31386C184.942 1.31386 184.971 1.26548 184.977 1.25473L186.029 1.2466C186.586 1.24632 187.167 1.26057 187.694 1.25651C188.467 1.22951 189.349 1.24456 190.287 1.30072C191.152 1.35832 192.001 1.40185 192.829 1.43094C193.63 1.46088 194.21 1.36543 194.972 1.35018C195.549 1.33869 196.182 1.35097 196.85 1.38654C198.003 1.44962 199.061 1.44974 199.927 1.38688C200.938 1.72556 201.429 1.78063 202.368 1.68911L202.809 1.66297L202.929 1.73561L203.266 1.71963C203.897 1.70541 204.527 1.69118 205.185 1.68611C206.1 1.71754 207.088 1.8021 208.052 1.93154C208.235 1.9542 208.484 2.03122 208.645 2.09151C208.806 2.15181 209.156 2.33371 209.413 2.45212C209.133 2.53856 208.822 2.62122 208.599 2.7206C208.577 2.73757 208.579 2.75782 208.606 2.7797C208.632 2.80159 208.683 2.8245 208.752 2.8466C208.822 2.8687 208.909 2.88937 209.007 2.90696C209.105 2.92454 209.211 2.93854 209.316 2.94784C209.521 2.96788 209.724 2.98124 209.915 2.98737C210.857 2.99794 211.76 2.99008 212.614 2.96388C212.925 2.92691 213.352 2.92339 213.826 2.9539C214.301 2.98441 214.795 3.0472 215.231 3.1323C216.349 3.08121 217.647 3.0963 219.036 3.17653C220.506 3.12774 222.281 3.22641 223.654 3.1195C223.622 3.17326 223.764 3.26581 223.961 3.31913C224.274 3.40013 224.628 3.47519 225.008 3.54114L227.912 3.66991C228.02 3.73613 228.156 3.80315 228.317 3.87013C228.427 3.92303 228.619 3.97479 228.852 4.01445C229.086 4.0541 229.342 4.07854 229.566 4.08256C230.144 4.10218 230.628 4.05831 231.317 4.1667C230.256 4.26917 228.825 4.25555 227.28 4.12829C225.828 4.0315 224.431 3.98313 223.141 3.98497C222.716 3.98424 222.156 3.98989 222.023 4.04844C221.728 4.21391 220.958 4.18775 220.059 4.15723C219.353 4.12382 218.708 4.12757 218.178 4.16817C217.647 4.20878 217.246 4.28508 217.007 4.3908C216.946 4.49294 217.091 4.58011 217.711 4.63954L220.287 4.87786C220.667 4.84722 221.027 4.81095 221.366 4.7692C221.938 4.71375 222.644 4.69853 223.429 4.72473C224.215 4.75092 225.058 4.81782 225.894 4.92023C226.321 4.97312 226.748 5.02601 227.057 5.00088C227.329 4.97201 227.579 4.93745 227.806 4.89744C227.852 4.87063 227.87 4.83978 227.86 4.80606C228.025 4.82174 228.189 4.84212 228.348 4.86651C229.62 5.151 230.606 5.14607 231.501 5.07228C231.743 5.05035 231.927 5.01548 232.173 4.98817C232.418 4.96086 232.505 4.92541 232.728 4.93573C234.506 5.02903 235.018 4.7174 236.517 4.72992C236.59 4.71774 236.635 4.69954 236.649 4.677C236.662 4.65445 236.643 4.62829 236.593 4.6009C236.487 4.57618 236.365 4.55492 236.237 4.53908C236.109 4.52323 235.98 4.51332 235.861 4.51024C235.171 4.47025 234.562 4.4825 234.138 4.54493C233.837 4.57043 233.519 4.59076 233.185 4.60579L231.684 4.1545C233.138 4.19587 234.513 4.1956 235.778 4.15369C236.054 4.13016 236.521 4.1707 236.909 4.17841L239.765 4.22059C240.353 4.22409 240.853 4.15334 241.672 4.31825C241.672 4.31825 242.213 4.34485 242.357 4.32233C242.502 4.29981 243.141 4.15976 243.523 4.06853C243.966 4.09454 244.579 4.16473 244.855 4.1412C245.337 4.0834 245.754 4.0093 246.099 3.92024L247.824 4.04738C247.822 4.16033 247.76 4.26659 247.636 4.36454C247.502 4.45901 247.507 4.5724 247.65 4.69545C247.793 4.8185 248.071 4.94772 248.461 5.07254L250.165 5.73363C250.443 5.7779 250.739 5.8077 251.014 5.81898C251.288 5.83027 251.527 5.82249 251.699 5.7967C252.432 5.72014 253.253 5.6603 253.986 5.58375C254.932 5.70086 254.689 5.89002 255.376 6.05595L257.603 6.33173C257.943 6.5873 258.289 6.83211 257.256 6.91767C257.05 6.93263 257.189 7.03056 257.001 7.0708C257.804 7.2626 258.687 7.32 259.501 7.43814C259.822 7.52309 260.091 7.61302 260.293 7.70358C260.516 7.83993 260.968 7.97922 261.551 8.09136C262.134 8.2035 262.801 8.2795 263.409 8.30294C264.429 8.37473 265.473 8.48256 266.494 8.6216C266.843 8.66994 267.202 8.70517 267.546 8.7249C267.89 8.74463 268.212 8.7484 268.489 8.73597C269.478 8.71408 270.314 8.63879 270.945 8.51502C271.568 8.40999 272.409 8.35936 273.39 8.36774C275.067 8.57553 275.406 8.88863 276.421 9.1644L274.667 9.19532C274.604 9.30283 274.72 9.43838 274.001 9.4359C273.282 9.43342 273.647 9.53629 273.88 9.64017C273.962 9.69243 274.122 9.74619 274.334 9.79234C274.545 9.83849 274.794 9.8742 275.039 9.89342L276.532 10.0264C277.062 10.077 277.574 10.0986 278.013 10.0888C278.452 10.0791 278.801 10.0383 279.021 9.97107C279.273 9.9072 279.622 9.864 280.046 9.84411C280.585 9.79201 281.029 9.71452 281.36 9.61457L283.468 9.76019C283.557 9.65975 283.847 9.58933 284.288 9.56083C284.728 9.53233 285.292 9.54748 285.885 9.60375L287.306 9.69313C288.885 9.79064 289.231 9.75854 289.694 9.47538L287.8 8.9696C288.075 8.83638 288.341 8.71928 288.607 8.60218C288.135 8.43555 287.505 8.27795 286.782 8.14538C286.107 8.00292 285.413 7.86496 284.702 7.73201C283.932 7.59615 283.118 7.47802 282.161 7.32487C281.994 7.27532 281.751 7.18756 281.441 7.103C281.131 7.02083 280.807 6.94028 280.471 6.86167C280.534 6.75416 280.592 6.6574 280.469 6.53259C281.059 6.57241 281.667 6.64206 282.241 6.73526C282.815 6.82845 283.335 6.94227 283.755 7.06643C283.825 7.08845 283.912 7.10913 284.008 7.12708C284.105 7.14503 284.21 7.15983 284.315 7.17046C285.35 7.24676 285.845 7.40614 286.351 7.60156C286.692 7.70145 287.132 7.79017 287.609 7.85539C288.524 7.96873 289.42 8.11432 290.295 8.24001C290.563 8.28189 290.841 8.31637 291.119 8.34201C292.033 8.42355 292.954 8.53756 293.833 8.67825C294.121 8.71401 294.396 8.76133 294.637 8.81625C294.878 8.87118 295.077 8.93211 295.218 8.99397C295 9.06175 294.883 9.1473 294.872 9.24546C294.834 9.30997 295.477 9.44147 295.78 9.53678C296.084 9.6321 295.488 9.58719 295.286 9.59677C294.457 9.61521 294.303 9.65385 294.8 9.8654C294.966 9.93192 295.076 9.99848 295.123 10.0609C295.171 10.1234 295.155 10.1804 295.076 10.2285C294.958 10.4274 294.599 10.5907 294.353 10.7852C294.735 10.9134 295.374 11.0502 295.444 11.2089C295.478 11.2441 295.548 11.2814 295.651 11.3181C295.754 11.3547 295.886 11.3899 296.039 11.421C296.44 11.4882 296.805 11.5685 297.106 11.6557C297.406 11.7429 297.634 11.8347 297.771 11.924C297.816 11.961 297.924 12.0001 298.074 12.0337C298.224 12.0673 298.405 12.0928 298.58 12.1051C298.79 12.1202 298.977 12.1182 299.104 12.0995C299.231 12.0809 299.287 12.0469 299.262 12.0048C299.267 11.9257 299.239 11.8432 299.179 11.758C299.214 11.6989 299.249 11.6397 299.11 11.5418C299.736 11.5775 300.392 11.6492 301.008 11.7489C301.625 11.8486 302.177 11.9726 302.606 12.1074C303.08 12.2469 303.517 12.3934 304.043 12.5566C303.934 12.7393 303.934 12.7393 305.052 13.0625L310.984 13.22L312.199 13.4341C313.333 13.6206 313.602 13.6079 314.314 13.5114L314.794 13.4207C315.8 13.5454 316.96 13.689 317.589 13.4554C317.794 13.6076 317.927 13.6588 317.881 13.6819C317.58 13.9066 317.058 14.0972 316.335 14.2463C316.15 14.2812 316.02 14.3343 315.806 14.3654C315.113 14.5409 314.952 14.812 315.356 15.1234C315.557 15.2611 315.848 15.4022 316.221 15.5421C315.676 15.7362 314.953 15.897 314.072 16.0202C313.324 16.1155 312.709 16.2432 312.243 16.3995C311.824 16.5571 311.198 16.6756 310.399 16.7482C309.994 16.779 309.698 16.8399 309.541 16.9247C309.495 17.1543 309.602 17.4001 309.86 17.6567C309.909 17.7347 310.047 17.8191 310.265 17.903C310.482 17.987 310.772 18.0683 311.112 18.1406C311.112 18.1406 311.276 18.1955 311.355 18.2284C311.421 18.5064 311.175 18.7514 310.635 18.947C310.546 19.0024 310.365 19.0425 310.11 19.0629C309.856 19.0832 309.538 19.0831 309.191 19.0624C308.458 19.0293 307.772 19.0252 307.063 19.0066C306.299 18.9803 305.625 19.001 305.114 19.0667C304.603 19.1323 304.272 19.2404 304.157 19.3795C304.15 19.4189 304.127 19.4567 304.09 19.4924C304.069 19.5108 304.057 19.5306 304.055 19.5515L305.684 20.0072L303.841 20.1886C303.733 20.3714 304.618 20.481 305.061 20.6167L304.787 20.6923C304.434 20.7352 303.959 20.6533 303.529 20.6057L303.102 20.5528L303.051 20.6388C302.785 20.7559 301.815 20.6243 301.437 20.7102C301.058 20.796 301.328 20.8929 301.895 20.9862C302.289 21.0556 302.712 21.1108 303.133 21.1479C303.553 21.185 303.96 21.2029 304.322 21.2003C304.539 21.1911 304.718 21.1701 304.85 21.1387C305.615 21.0047 306.46 20.8896 307.379 20.7941C308.083 20.7083 308.965 20.6718 309.963 20.6872C310.256 20.6807 310.609 20.701 310.961 20.7446C311.312 20.7881 311.639 20.852 311.885 20.9252V20.9252L312.402 20.9373C312.402 20.9373 312.685 21.0127 312.644 21.025C312.448 21.2484 312.676 21.5216 313.296 21.8039V21.8039L312.757 21.8295C311.987 21.8033 312.475 21.9735 312.36 22.0573C311.813 22.0414 311.102 21.9707 310.842 22.077L310.454 22.0693L310.606 22.0882L310.791 22.0533L311.515 22.2123C311.172 22.239 310.923 22.2717 310.62 22.2861C310.453 22.2986 310.319 22.3207 310.228 22.3511C310.137 22.3814 310.09 22.4194 310.09 22.4627C310.091 22.5294 310 22.5856 309.828 22.6258C309.655 22.666 309.405 22.6889 309.102 22.6924C308.741 22.6939 308.535 22.7664 308.323 22.7921L309.243 23.2291C309.243 23.2291 308.785 23.1725 309.034 23.2495L309.066 23.1957L309.623 23.3051C310.025 23.401 310.306 23.4243 310.543 23.3555C310.78 23.2868 310.726 23.3782 310.84 23.3519C310.798 23.4218 310.54 23.4706 310.319 23.5125C310.063 23.5453 309.774 23.5695 309.458 23.5846C310.029 23.8919 310.056 23.9011 309.222 23.9824C308.388 24.0638 308.676 24.186 307.978 24.2034C307.28 24.2208 308.073 24.4287 308.54 24.4693C308.887 24.4959 309.24 24.5375 309.576 24.591C309.911 24.6445 310.221 24.7088 310.485 24.7794L310.345 25.0159C310.139 24.9963 309.934 24.9708 309.735 24.9403C309.059 24.8104 308.444 24.6881 307.842 24.7636L308.129 24.9433L306.029 24.8391C306.084 24.9738 306.404 25.1272 306.922 25.267V25.267C306.844 25.3438 306.796 25.4246 306.778 25.5089C306.743 25.5681 306.536 25.5309 306.401 25.5373C305.921 25.5471 305.526 25.5872 305.252 25.6539C304.979 25.7207 304.834 25.812 304.832 25.9199C304.778 26.0113 305.517 26.2009 305.979 26.1947C307.133 26.2129 308.38 26.2832 309.654 26.4018C310.431 26.4172 310.541 26.1769 311.819 26.3409C311.844 26.4519 311.68 26.5417 311.352 26.5969C311.024 26.652 310.55 26.6695 310 26.6466C310.313 26.893 312.043 26.9572 312.119 27.2148C311.689 27.1966 311.228 27.1538 310.783 27.0906C310.338 27.0274 309.924 26.946 309.583 26.8545C309.509 26.8319 309.416 26.8111 309.313 26.794C309.21 26.7769 309.101 26.764 308.994 26.7566C308.887 26.7491 308.787 26.7473 308.704 26.7514C308.62 26.7555 308.554 26.7652 308.514 26.7798C308.753 26.8729 309.017 26.9806 309.317 27.0813C309.618 27.182 309.69 27.2255 309.907 27.2466C311.523 27.4468 312.292 27.8075 313.691 28.0442C314.057 28.0895 314.102 28.2336 313.784 28.2173C313.482 28.201 313.208 28.2032 312.994 28.2235C312.78 28.2438 312.633 28.2815 312.57 28.3324C312.336 28.3917 312.044 28.4389 311.701 28.4729C313.136 28.8429 314.846 29.1699 316.671 29.4231C317.017 29.4731 317.378 29.5037 317.7 29.5102C318.719 29.5105 319.801 29.5399 320.923 29.5977C321.321 29.6134 321.688 29.612 322.006 29.5933C323.047 29.5492 323.874 29.6458 324.629 29.9182L325.879 30.35C325.838 30.4199 325.628 30.4978 325.467 30.6047L326.443 30.8353L333.896 30.3043L335.392 30.8184L337.537 30.7899C337.701 30.8047 337.867 30.8252 338.025 30.8503C338.459 31.0021 338.798 31.148 339.269 31.2929C339.74 31.4377 340.581 31.4553 341.167 31.626C341.753 31.7968 342.341 31.8003 343.066 31.9017C343.135 32.0338 343.064 32.1528 342.859 32.2511C342.792 32.364 342.424 32.4337 342.36 32.5412C342.367 32.6499 342.23 32.7421 341.961 32.8096C341.693 32.8771 341.301 32.9177 340.821 32.9277C339.478 33.159 337.859 33.3238 336.013 33.4169C335.851 33.4237 335.716 33.4393 335.618 33.4629C335.519 33.4864 335.459 33.5173 335.441 33.5538C335.443 33.6592 335.32 33.7504 335.08 33.8205C334.84 33.8906 334.49 33.938 334.054 33.9591C333.938 33.9633 333.851 33.9766 333.803 33.9972C333.637 34.0104 333.517 34.0359 333.453 34.0709C333.389 34.106 333.384 34.1496 333.438 34.1975C333.492 34.2454 333.603 34.2959 333.761 34.3442C333.919 34.3925 334.118 34.437 334.339 34.4733C334.66 34.5317 334.987 34.5877 335.32 34.6409C335.301 34.6732 334.97 34.6784 335.019 34.7075C335.149 34.8002 335.179 34.8871 335.107 34.9613C335.035 35.0355 334.862 35.0948 334.602 35.1348L336.383 35.8862C337.464 35.9903 338.524 36.1668 339.363 36.3823C339.364 36.4176 339.316 36.4471 339.223 36.4681C339.13 36.489 338.996 36.5005 338.834 36.5014C338.399 36.5168 337.989 36.5467 337.52 36.5637C337.234 36.5764 336.996 36.6043 336.819 36.6459C336.643 36.6874 336.532 36.7418 336.493 36.8057L337.539 37.0853C337.204 37.1534 336.955 37.1861 336.734 37.2279C336.859 37.3158 337.075 37.4067 337.364 37.4935C337.653 37.5804 338.008 37.6609 338.401 37.7288C338.507 37.7428 338.614 37.753 338.718 37.7589C338.821 37.7647 338.918 37.7661 339.003 37.7629C339.813 37.6671 340.761 37.8363 341.681 37.9964C342.601 38.1566 343.1 38.2531 343.78 38.3776L345.079 38.3943C345.408 38.4532 345.702 38.5226 345.937 38.5967C346.171 38.6709 346.34 38.7478 346.431 38.8213C346.361 38.9396 345.744 38.8748 345.377 38.887C344.505 38.9606 343.359 38.9449 342.129 38.8425C341.824 38.8047 341.511 38.8352 341.214 38.8388C340.574 38.8535 339.959 38.8775 339.371 38.9106C338.984 38.9413 338.622 38.9794 338.288 39.0246C338.199 39.1751 339.604 39.2914 338.807 39.3657C339.081 39.3997 339.184 39.4471 339.325 39.43C340.229 39.5277 341.12 39.576 341.895 39.5693C343.381 39.5486 345.068 39.6172 346.818 39.7695C348.708 39.9273 350.52 39.9935 352.106 39.9628C352.71 39.961 353.385 39.9933 354.08 40.0572C354.901 40.1458 355.716 40.2015 356.472 40.2207C356.722 40.2214 357.001 40.2365 357.286 40.2647C357.571 40.293 357.853 40.3336 358.111 40.3833V40.3833C358.088 40.421 357.843 40.4483 357.898 40.4666C358.68 40.7482 358.998 41.0413 360.202 41.329C361.026 41.431 361.972 41.5482 362.51 41.4129C363.049 41.2776 362.856 41.1614 361.784 40.8152C362.017 40.8102 362.297 40.8264 362.575 40.8609C362.854 40.8954 363.114 40.9461 363.309 41.0041L364.236 41.2631L365.071 41.5109C364.998 41.6345 364.941 41.7313 364.88 41.8334C364.785 41.9419 364.89 42.0739 365.18 42.211C365.356 42.2858 365.509 42.3607 365.637 42.4349C366.159 42.7317 366.311 43.0121 366.074 43.2449C365.62 43.5795 364.989 43.8875 364.186 44.1651C363.338 44.4352 362.875 44.7759 362.176 45.0702C361.82 45.2042 361.387 45.3244 360.883 45.4293C359.926 45.6628 358.878 45.8849 357.917 46.1238C356.957 46.3626 355.873 46.5342 354.807 46.731C353.22 46.9646 351.504 47.1664 349.669 47.3352C348.533 47.4831 347.367 47.6272 346.317 47.7971C345.077 47.9887 343.619 48.1263 341.982 48.2065C340.535 48.3025 339.243 48.4444 338.129 48.6295C338.013 48.6495 337.92 48.675 337.855 48.7052C337.655 48.894 337.093 49.0271 336.256 49.0841C336.306 49.1394 336.372 49.1956 336.45 49.2525C336.567 49.3203 336.591 49.3837 336.52 49.4346C336.449 49.4855 336.286 49.5214 336.052 49.5378C335.382 49.5846 334.826 49.664 334.407 49.7726C334.253 49.7998 334.158 49.8395 334.129 49.8882C334.1 49.9368 334.138 49.9931 334.241 50.0521C334.332 50.1128 334.339 50.1687 334.26 50.2125C334.182 50.2562 334.022 50.2859 333.801 50.2976C333.234 50.3551 332.627 50.4013 331.984 50.4361C330.615 50.5126 329.023 50.5117 327.303 50.4334C327.12 50.4107 326.936 50.4456 326.722 50.4191C325.506 50.3314 324.377 50.3178 323.471 50.38C322.409 50.4042 321.299 50.3994 320.179 50.4107C318.561 50.4031 317.068 50.4493 315.743 50.548C314.227 50.4526 313.376 50.6184 312.097 50.6216C310.917 50.6386 309.797 50.6794 308.751 50.7437C307.063 50.829 305.382 50.9035 303.718 51.0033C302.158 51.0508 300.721 51.1417 299.432 51.2744C298.938 51.3344 298.044 51.241 297.707 51.3667C297.371 51.4923 296.692 51.4775 296.144 51.5192L294.413 51.6222C294.115 51.6467 293.788 51.6622 293.436 51.6685C291.826 51.6769 290.712 51.8447 289.218 51.879L289.066 51.8601C286.414 52.1095 283.378 52.2464 280.05 52.2667C278.105 52.3433 275.979 52.3396 273.916 52.3957C273.424 52.5078 272.261 52.3696 271.644 52.472C271.027 52.5745 270.019 52.5073 269.223 52.5242C268.427 52.541 267.649 52.5831 266.799 52.5817C266.06 52.5822 265.437 52.6279 264.985 52.7147C263.953 52.8583 262.695 52.9427 261.268 52.9641C259.379 53.0014 257.594 53.0861 255.673 53.0675C255.701 53.1721 255.583 53.2611 255.332 53.3253C255.081 53.3896 254.706 53.4267 254.245 53.433C252.191 53.4729 250.329 53.5769 248.248 53.6077L247.691 53.608L241.467 53.668C239.79 53.6796 238.175 53.6988 236.464 53.712C235.824 53.6326 235.808 53.7692 235.365 53.7432C235.241 53.6759 235.095 53.6463 234.877 53.6827L234.829 53.7634L227.726 53.8703C224.945 53.9486 222.02 53.972 218.975 53.9405C218.253 53.9484 217.579 53.9751 216.964 54.0202C216.393 54.0367 215.798 54.044 215.183 54.042C214.35 54.0217 213.536 54.0115 212.745 54.0113C210.664 54.0421 208.48 54.0255 206.202 54.0029C203.923 53.9804 202.197 54.0205 200.168 54.0174C198.795 54.0146 197.428 54.0011 196.006 53.9692C195.327 53.9544 194.491 53.8739 193.788 53.8445C193.085 53.8152 192.855 53.8156 192.763 53.8618C192.457 53.9912 191.688 53.9076 191.073 53.8949C189.874 53.8734 189.704 53.8292 189.379 53.4946L190.849 53.3883C191.21 53.354 191.663 53.3479 192.166 53.3708C192.669 53.3936 193.203 53.4445 193.719 53.5187C193.922 53.5504 194.134 53.5755 194.343 53.5925C194.552 53.6095 194.754 53.618 194.937 53.6176C196.421 53.5995 197.885 53.5614 199.311 53.5304L199.52 53.51L199.533 53.2116C199.344 53.1823 199.148 53.1581 198.953 53.1398L191.799 52.9462C190.157 52.8987 188.453 52.7914 186.842 52.7477C185.23 52.7039 184.362 52.6771 183.112 52.6319C182.585 52.6062 182.047 52.5723 181.502 52.5307C181.534 52.5019 181.552 52.4714 181.556 52.4393C181.585 52.3909 181.623 52.3264 181.392 52.2747C181.14 52.2016 180.803 52.1393 180.448 52.1C180.115 52.0741 179.791 52.0594 179.491 52.0566C178.04 52.0316 176.383 51.8739 174.873 51.6173L174.346 51.7886C172.078 51.6923 169.777 51.5977 167.408 51.5063C166.934 51.4814 166.436 51.4335 165.952 51.3664C165.433 51.3021 164.956 51.168 164.41 51.0947C163.871 51.0419 163.335 51.0007 162.813 50.9719C162.955 50.9278 163.141 50.8926 163.367 50.8673C163.588 50.8584 163.75 50.8309 163.828 50.7887C163.906 50.7465 163.896 50.6918 163.8 50.6325C163.631 50.5308 163.557 50.4351 163.925 50.4229C164.264 50.3997 164.507 50.3495 164.625 50.2782C164.742 50.2069 164.73 50.1174 164.589 50.0204C164.527 49.9637 164.483 49.9082 164.458 49.8542V49.8542L164.306 49.8353C163.802 49.6345 162.798 49.562 162.077 49.3977C161.736 49.35 161.384 49.3226 161.075 49.3198C160.277 49.2845 159.501 49.2691 158.676 49.2246C158.282 49.2041 157.87 49.1668 157.464 49.1149C156.884 49.0431 156.823 49.0355 156.487 48.7746C157.009 48.7792 157.423 48.7402 157.659 48.6642C157.895 48.5883 157.938 48.4801 157.781 48.3579C157.35 48.091 156.895 47.8096 154.944 47.62C155.58 47.6106 156.193 47.5921 156.778 47.5644C156.949 47.5584 157.076 47.5388 157.144 47.5082C157.212 47.4775 157.216 47.4374 157.157 47.393C157.098 47.3487 156.978 47.3022 156.813 47.26C156.648 47.2177 156.446 47.1816 156.234 47.1565C155.205 47.0055 154.131 46.9045 153.133 46.8648C152.292 46.8472 151.533 46.857 150.551 46.8566L149.392 46.713C149.411 46.6808 149.241 46.6366 149.284 46.6189C149.578 46.4534 149.903 46.2917 150.238 46.1139C149.704 46.0178 149.241 45.9019 148.902 45.7794C148.564 45.6568 148.363 45.5326 148.324 45.421C148.295 45.3873 148.303 45.3566 148.346 45.331C148.39 45.3055 148.468 45.2858 148.575 45.2732C148.88 45.2516 149.116 45.2104 149.264 45.1526C149.411 45.0949 149.468 45.0222 149.427 44.9402L148.526 44.6382C145.812 44.4226 143.147 44.2686 140.58 44.1791L138.262 44.1113C137.983 44.0305 138.069 43.9951 138.333 43.9931C138.596 43.991 139.335 44.0134 139.852 44.0255C140.298 44.0413 140.695 44.0309 141.003 43.9953C141.311 43.9596 141.52 43.8999 141.61 43.822L140.832 43.4775C140.87 43.413 140.924 43.3216 141.346 43.3277C141.635 43.3202 141.847 43.2878 141.949 43.2355C142.052 43.1833 142.038 43.1143 141.91 43.0398C141.89 42.9858 141.92 42.9367 141.996 42.8946C142.62 42.8911 143.241 42.893 143.807 42.8766C144.071 42.8712 144.294 42.8512 144.46 42.8181C144.627 42.7849 144.733 42.7394 144.772 42.6846C144.793 42.6311 144.743 42.5701 144.627 42.5066C144.511 42.4432 144.332 42.3789 144.105 42.3192C143.217 42.2452 142.405 42.2443 141.847 42.3165C141.648 42.3731 141.329 42.4041 140.931 42.4052C140.532 42.4064 140.074 42.3777 139.617 42.323C139.093 42.2599 138.571 42.2322 138.143 42.2448C137.715 42.2574 137.411 42.3096 137.284 42.3919C136.747 42.3599 136.27 42.3355 135.8 42.3003C135.245 42.2559 134.72 42.2429 134.283 42.2625C133.583 42.2764 132.829 42.2683 132.038 42.2383C129.758 42.1636 127.474 42.0943 125.266 42.0632C124.682 42.0543 124.177 42.0783 123.599 42.0586C123.021 42.039 122.564 42.092 121.842 41.9852C121.704 41.9686 121.565 41.958 121.437 41.9541C121.309 41.9502 121.194 41.9532 121.102 41.9629C119.833 42.0473 118.345 42.0592 116.726 41.9979C114.509 41.9829 112.209 41.9405 109.988 41.9309C109.337 41.9391 108.721 41.9614 108.148 41.9972C107.712 42.0189 107.255 42.0336 106.78 42.0412C106.415 42.0481 106.067 42.028 106.129 42.1452C106.19 42.2625 105.644 42.1891 105.33 42.1675C104.249 42.1106 103.144 42.0336 102.028 41.9374C100.928 41.8329 99.8507 41.772 98.8598 41.7585C98.1441 41.7507 97.4062 41.7804 96.486 41.6203C96.5211 41.5612 96.5561 41.5021 96.7564 41.4403C96.006 41.2704 95.1499 41.1243 94.2588 41.0139C93.3676 40.9035 92.4672 40.8321 91.6318 40.8056L90.48 40.4841C90.1964 40.4463 89.9068 40.4188 89.629 40.4033C89.3511 40.3877 89.0908 40.3844 88.8637 40.3935C88.6883 40.3982 88.4745 40.3863 88.2616 40.3599C88.0486 40.3335 87.8509 40.2945 87.7046 40.25C87.4858 40.1934 87.2187 40.1445 86.9365 40.1096C86.6544 40.0746 86.3698 40.0551 86.1184 40.0535C85.327 40.0186 84.4821 39.9378 83.6704 39.8196C83.4598 39.7503 83.3278 39.6786 83.2907 39.6136C83.2536 39.5485 83.3132 39.4928 83.4619 39.4533C83.7017 39.3836 83.8363 39.2949 83.8577 39.1924C83.879 39.0899 83.7866 38.9758 83.5861 38.8571C83.4834 38.7841 83.4491 38.7151 83.4852 38.6542C83.5213 38.5932 83.6272 38.5415 83.7963 38.5023C84.4277 38.3208 84.2588 38.2191 83.2258 37.9181C83.058 37.8679 82.8557 37.821 82.6317 37.7803C82.4078 37.7397 82.1672 37.7062 81.925 37.6819C81.3569 37.6329 80.7965 37.5964 80.2542 37.5731C79.9492 37.5353 79.6363 37.5658 79.2849 37.5511C77.5275 37.4777 77.2703 37.3593 76.7012 37.1042L76.2864 36.9201C75.5172 36.771 74.6759 36.6472 73.8231 36.5575C72.9703 36.4679 72.1274 36.4146 71.355 36.4017C71.0479 36.4007 70.6949 36.3752 70.3501 36.3291C69.228 36.1883 68.0916 36.0908 67.0162 36.0432C66.346 36.0164 65.6237 35.947 64.9358 35.8434C64.248 35.7397 63.6239 35.6063 63.1386 35.4591C62.7026 35.3264 62.1322 35.2074 61.5068 35.1185C60.7747 35.0278 60.7069 34.9213 61.1158 34.8392C61.5246 34.7572 62.2093 34.6515 62.817 34.5653C63.0285 34.5359 63.1595 34.4882 63.1955 34.4275C63.2315 34.3667 63.1711 34.2953 63.0209 34.2212C62.9245 34.0944 62.9078 33.974 62.9712 33.8631C63.0051 33.817 62.9817 33.7641 62.9026 33.708C62.8235 33.652 62.6906 33.594 62.5127 33.5381C62.3348 33.4822 62.1163 33.4295 61.8716 33.3838C61.627 33.3381 61.362 33.3002 61.0945 33.2729C59.9659 33.1331 58.8677 32.9971 57.7168 32.8949C57.2345 32.8468 56.7527 32.7871 56.2831 32.7174C55.3221 32.5449 54.2939 32.4019 53.2583 32.2966C52.7668 32.2495 52.2863 32.1672 51.9207 32.0675C50.7678 31.7988 49.7053 31.5162 48.7528 31.225C48.5232 31.1347 48.2228 31.0466 47.8704 30.9662C47.518 30.8858 47.1212 30.8149 46.7049 30.7579C46.3694 30.7163 46.0962 30.6248 45.8376 30.5639C45.6497 30.4229 45.6296 30.2925 45.7793 30.1849C45.929 30.0773 46.2436 29.996 46.6934 29.9487C47.12 29.8919 47.5192 29.8259 47.888 29.7562C48.3325 29.6998 48.8609 29.6659 49.4537 29.6558C50.1556 29.6255 50.6747 29.539 50.9432 29.4075C49.0215 29.1695 47.194 28.8278 45.5096 28.9077L44.2297 28.6914C44.2807 28.6054 44.3253 28.5302 44.3667 28.4603C44.6711 28.3331 44.7662 28.1727 44.6439 27.9926C44.543 27.9055 44.5522 27.8263 44.6702 27.7629C44.7883 27.6995 45.0111 27.6542 45.3163 27.6316C47.1236 27.3996 49.2137 27.243 50.9086 26.9798C51.4401 26.9304 52.0621 26.9079 52.7487 26.9134C53.413 26.8976 53.3852 26.7787 52.6208 26.6321C52.1917 26.5555 51.7544 26.4821 51.3105 26.4121C49.3528 26.4005 48.5553 26.7518 46.3213 26.654L45.2859 26.1911C45.0059 26.1839 44.7341 26.1811 44.4723 26.1826L40.7265 26.3707C40.4145 26.3801 40.1716 26.4123 40.0255 26.4636C39.8794 26.5148 39.8358 26.5831 39.8998 26.6607C39.9251 26.7556 39.8735 26.8427 39.7468 26.9187C39.6652 26.972 39.7174 27.0428 39.8922 27.1156C40.286 27.2798 39.7807 27.3037 39.4615 27.345C39.38 27.349 39.2859 27.3486 39.1848 27.3437C39.0837 27.3389 38.9776 27.3297 38.8726 27.3167C38.7676 27.3037 38.6658 27.2871 38.5732 27.268C38.4806 27.2489 38.3989 27.2275 38.3329 27.2052C37.7706 27.049 37.2789 26.8843 36.7262 26.7119C37.1186 26.547 36.6569 26.2764 37.2692 26.1272C37.3376 26.0974 37.3651 26.061 37.3497 26.0204C37.3343 25.9798 37.2765 25.9358 37.1799 25.8911C36.9305 25.7756 36.8118 25.6629 36.8356 25.5646C36.8594 25.4662 37.0249 25.3856 37.3154 25.3308L37.3505 25.2717C36.5842 25.073 36.7873 24.8961 36.4863 24.6858L35.7492 24.5483C33.9153 24.2173 33.9121 24.2227 32.3333 24.2349C32.015 24.1089 32.4194 24.0897 32.7226 24.0754L35.262 23.934C36.9224 23.8396 38.6309 23.7743 40.4857 23.7386C42.3404 23.7028 44.4082 23.5839 46.3253 23.4982C46.4222 23.4915 46.4964 23.4784 46.5415 23.4599C46.5866 23.4414 46.6015 23.4181 46.5848 23.3918C46.5086 23.3635 46.4088 23.3361 46.2929 23.3118C46.177 23.2874 46.0478 23.2667 45.915 23.2512C45.3049 23.1756 44.679 23.127 44.0289 23.0638L42.8169 22.954L42.444 22.8098C42.2014 22.722 42.0356 22.6149 41.7128 22.5519C41.4468 22.5048 41.158 22.4691 40.8765 22.4485C40.5951 22.4278 40.3313 22.423 40.1126 22.4345C39.5062 22.4632 38.9575 22.5049 38.3784 22.5428C37.7994 22.5807 37.4802 22.622 36.9781 22.6406C35.9578 22.649 34.9718 22.6714 34.0244 22.7075C33.2263 22.793 32.4882 22.8943 31.8146 23.0108C31.3944 23.0569 31.0014 23.1121 30.2839 23.0521C29.9435 22.9976 29.6499 22.9261 29.4552 22.8503C29.2604 22.7744 29.177 22.699 29.2199 22.6375C29.2584 22.5893 29.3674 22.5512 29.5366 22.5267C29.7058 22.5023 29.9296 22.4922 30.1868 22.4976C30.9071 22.4888 31.5731 22.459 32.1714 22.4088C33.0042 22.3178 34.0181 22.2786 35.1538 22.2934C35.5389 22.3065 35.7971 22.2577 36.134 22.2417C36.4709 22.2258 36.7563 22.1861 37.1319 22.2153C38.2987 22.2906 38.8582 22.1752 39.5575 22.1003C39.7942 22.0671 39.9409 22.0133 39.9813 21.945C40.0218 21.8768 39.9545 21.7965 39.7869 21.7132C39.4641 21.5473 39.0693 21.3805 38.6086 21.2153C38.3715 21.1341 38.0677 21.0571 37.7211 20.9901C37.3745 20.9231 36.9944 20.8681 36.6108 20.8294C36.3812 20.7278 36.2587 20.6279 36.2544 20.5387C36.2501 20.4495 36.3641 20.3738 36.5862 20.3186C37.152 20.1925 37.6537 20.0642 38.9216 20.1347C39.5177 20.1616 40.0788 20.1668 40.5824 20.15C41.6994 20.1269 42.988 20.1773 44.3265 20.2963C44.6729 20.3268 45.0133 20.3476 45.3377 20.3581C47.6518 20.4312 49.8566 20.4677 52.0679 20.4935C53.2393 20.5058 54.4202 20.5021 55.6431 20.5381C58.5108 20.6163 61.1213 20.5761 63.8893 20.6016C65.339 20.6147 66.6366 20.562 67.714 20.4463C67.9238 20.4076 68.104 20.3623 68.2525 20.3111C67.5385 20.1767 66.7543 20.0703 65.9749 20.002C65.1955 19.9338 64.4471 19.906 63.8013 19.9214C63.4463 19.959 62.9875 19.9659 62.476 19.9412C61.9645 19.9166 61.4204 19.8614 60.9044 19.7818V19.7818L62.4046 19.7368C63.3993 19.7158 64.4182 19.7092 65.3856 19.679C66.9226 19.6271 68.347 19.5438 69.9386 19.5101C71.2236 19.4792 72.3735 19.4 73.3522 19.2751C74.0592 19.184 74.8667 19.1194 75.7582 19.0827C76.392 19.0631 76.392 19.063 76.7971 18.8767C76.4757 18.7561 76.06 18.7392 75.6685 18.7369C73.3212 18.661 71.0874 18.6477 69.0125 18.6972C67.9656 18.7016 67.0369 18.7528 66.2709 18.8482C66.0834 18.8884 65.6035 18.8694 65.2183 18.8563C64.0109 18.8364 62.8569 18.8422 61.7702 18.8735C60.2677 18.9258 58.5943 18.9134 56.815 18.8368C56.4777 18.7431 56.866 18.7508 56.8851 18.7186C58.2632 18.6584 59.614 18.5892 61.0194 18.5382C61.4035 18.52 61.8142 18.511 62.2468 18.5113C63.8615 18.5429 65.2071 18.4554 66.0951 18.2609C66.1397 18.1856 66.7238 18.1945 66.9819 18.1457C67.1089 18.1035 67.1935 18.0537 67.2331 17.9979C66.8571 17.859 66.4319 17.8583 66.1045 17.8582C65.1547 17.8737 64.2409 17.9031 63.3676 17.9462C62.5557 17.9872 61.6571 17.9982 60.696 17.9788C59.9867 17.9602 59.3803 17.989 58.6646 17.9811C58.2764 17.9646 57.8746 17.938 57.4673 17.9021C57.9208 17.8052 58.5372 17.7457 59.2733 17.7276C59.8315 17.6698 60.5294 17.6524 60.6186 17.5018C60.3549 17.3942 60.0613 17.3924 59.8254 17.4036C59.3346 17.4032 58.8604 17.41 58.4055 17.4239C57.4409 17.4545 56.3964 17.455 55.2942 17.4252C54.7138 17.4141 54.163 17.4174 53.6511 17.4352C52.4911 17.4589 51.3794 17.5116 50.3173 17.5358C48.1416 17.5606 46.1571 17.6495 44.0666 17.6964C43.6013 17.708 43.1842 17.7487 42.571 17.6785C41.9577 17.6083 41.9304 17.5992 41.858 17.5556C41.6864 17.4829 41.6344 17.4124 41.7128 17.3587C41.8344 17.3086 42.0714 17.2807 42.3815 17.28C44.2503 17.2003 46.0229 17.0883 47.6881 16.9448C48.4209 16.916 49.063 16.8574 49.5919 16.7709C50.0114 16.7113 50.5091 16.6719 51.0692 16.6538C51.8839 16.6107 52.7332 16.5792 53.6137 16.5593C54.0234 16.5486 54.3717 16.5166 54.6383 16.4654C54.9048 16.4142 55.0841 16.3447 55.1656 16.261L54.0862 15.9831C53.9166 15.9701 53.7484 15.9589 53.5822 15.9495L44.623 16.1497L43.7358 16.1552C42.7633 16.1386 42.5257 16.0977 41.6032 15.7757C43.7084 15.6999 45.3632 15.4792 46.403 15.1353C46.1531 15.0984 45.8969 15.0666 45.6404 15.0409C43.958 14.9596 42.3677 14.938 40.9306 14.9769C40.077 14.9808 39.1993 14.9702 38.3184 14.9649C38.576 14.8064 39.563 14.8537 40.2063 14.8179C41.7433 14.762 43.1025 14.6465 44.2404 14.4751C44.6327 14.4083 45.1235 14.3656 45.6903 14.3489C46.2576 14.3431 46.7314 14.3027 47.0706 14.2311C47.4098 14.1594 47.6041 14.0588 47.6364 13.9379C47.6899 13.8284 47.8051 13.7267 47.9802 13.6343C47.6703 13.5031 47.1783 13.3774 46.5965 13.2809C46.0147 13.1845 45.383 13.1237 44.8201 13.1102C43.6183 13.0561 42.3719 12.9677 41.1124 12.8471C40.485 12.7863 39.8698 12.7514 39.3068 12.7447C38.8103 12.7395 38.2459 12.6956 37.6997 12.6196C37.1536 12.5436 36.6557 12.4398 36.2819 12.3239C35.7775 12.1806 35.3066 12.0357 34.8359 11.8909C34.3651 11.746 33.8188 11.563 33.2693 11.3853C32.7847 11.3575 32.3129 11.3396 31.8602 11.3319C31.508 11.3384 31.097 11.3191 30.6757 11.2761C30.2545 11.2331 29.8405 11.1683 29.4827 11.0894V11.0894C29.6926 11.0115 29.9298 10.9428 30.1797 10.8526C29.8367 10.7335 29.5879 10.612 29.4487 10.4955C29.3094 10.3791 29.2825 10.2701 29.3697 10.1753C29.4207 10.0893 29.0477 9.94497 28.9189 9.83092C28.753 9.7326 28.7219 9.64084 28.8295 9.56768C28.9371 9.49452 29.1785 9.44337 29.5221 9.42094C29.9482 9.37953 30.295 9.31718 30.5482 9.23644C30.632 9.21548 30.6746 9.18677 30.6722 9.15295C30.6698 9.11912 30.6225 9.08126 30.5346 9.04281C30.4466 9.00437 30.3208 8.96657 30.1687 8.93288C30.0167 8.89919 29.8431 8.87068 29.664 8.84996C29.1153 8.79122 28.5704 8.75314 28.0605 8.73792C27.1822 8.70991 26.3413 8.69232 25.5379 8.68514C24.6494 8.67434 23.6609 8.60765 22.6729 8.49186C21.7883 8.3823 20.9952 8.28407 20.5626 8.07471C20.1301 7.86534 19.4385 7.87202 18.9068 7.7196C19.2055 7.58221 19.7364 7.48676 20.446 7.44286C20.9103 7.42719 21.2979 7.38606 21.5839 7.32212C21.8699 7.25817 22.048 7.17281 22.1067 7.07153L20.4923 6.64654C19.2029 6.44646 18.4896 6.60045 17.0964 6.52023L18.5319 6.36335C18.5607 6.34784 18.5715 6.32963 18.5637 6.30959C18.4244 5.99228 18.2026 5.92443 16.7353 5.74846L15.9117 5.64646L14.6082 5.52541C14.3995 5.46038 14.2551 5.39257 14.1895 5.32875C14.1239 5.26493 14.1394 5.20735 14.2344 5.16176C14.4254 5.08508 14.4834 4.98711 14.4033 4.87685C14.2768 4.80381 14.2664 4.73648 14.3738 4.68654C14.4811 4.63659 14.6995 4.60719 14.991 4.60343C15.2236 4.59762 15.2409 4.51321 15.3674 4.46541C15.4932 4.39953 15.7084 4.34898 15.9985 4.3172C16.2885 4.28541 16.6465 4.27313 17.0482 4.28121C18.2325 4.2878 19.3451 4.26307 20.3661 4.20746L20.1831 4.18479C21.2474 4.23361 22.2423 4.23954 23.1196 4.20227C23.9987 4.15535 25.1269 4.18545 26.0606 4.15684C26.8208 4.1634 27.3995 4.09847 27.674 3.97584C27.9399 3.85874 28.9059 3.88607 29.6457 3.90845C30.084 3.92293 30.5075 3.92907 30.9119 3.92678C31.4546 3.90028 32.1332 3.92527 32.8345 3.99757C33.0449 4.01979 33.2522 4.03156 33.4364 4.03172C35.2192 4.06212 36.9988 4.09788 38.7575 4.11374C39.1634 4.10461 39.6394 4.12553 40.1296 4.17405C40.3357 4.19512 40.5362 4.20385 40.7042 4.19906C43.4832 4.15087 46.619 4.27382 49.3433 4.20733C49.6735 4.19162 50.039 4.18836 50.4296 4.19761C51.3072 4.23668 52.0693 4.21154 52.6003 4.12602C52.8867 4.08053 53.254 4.05546 53.6786 4.05242C54.1032 4.04937 54.5759 4.06842 55.0664 4.10833C55.8828 4.16118 56.6373 4.16691 57.2503 4.12492C58.4455 4.08612 59.7025 4.07017 61.0113 4.07719C61.4123 4.08398 61.7648 4.0689 62.0415 4.03313C62.3182 3.99735 62.5116 3.94184 62.6069 3.8709C62.2854 3.7503 61.934 3.73563 61.6003 3.74623C60.3069 3.71875 59.0167 3.6859 57.7474 3.67295C56.6113 3.63595 55.5212 3.62465 54.4931 3.63919C53.9827 3.65559 53.3457 3.61819 52.7212 3.53514C51.9559 3.42995 51.1676 3.3777 50.5159 3.38894C50.0326 3.39173 49.5225 3.38267 48.993 3.36189C48.6541 3.33683 48.3067 3.29381 47.9864 3.23722C47.8593 3.21265 47.721 3.19198 47.5803 3.17656C47.4396 3.16113 47.2997 3.15128 47.1694 3.14763C47.0391 3.14398 46.9212 3.1466 46.8234 3.15534C46.7256 3.16409 46.6501 3.17876 46.6015 3.19841C46.1112 3.36273 45.0149 3.27887 44.0762 3.2607C42.6693 2.9826 41.6223 3.1472 40.3075 2.99012C40.2035 2.97971 40.101 2.9734 40.0064 2.9716C39.9118 2.9698 39.827 2.97254 39.757 2.97965C37.2126 3.07419 34.247 2.9954 31.5755 3.02805C31.2809 3.03282 30.9389 3.01646 30.5885 2.98082C28.2983 2.74493 26.0964 2.67795 24.4132 2.79301C24.2084 2.80337 23.9754 2.80381 23.7249 2.79431C22.5741 2.70056 21.4736 2.66318 20.5152 2.6853C19.0133 2.67815 17.5692 2.68394 16.0432 2.66227C14.9912 2.63144 14.0684 2.66438 13.3671 2.75782C13.3448 2.79545 12.8777 2.7549 12.5198 2.75097C12.314 2.65624 12.1356 2.57068 11.9234 2.4867C11.7338 2.3828 11.4497 2.27766 11.0904 2.17842C10.7312 2.07917 10.3053 1.98814 9.84144 1.91148C9.04836 1.81325 8.96904 1.67071 9.524 1.61827C10.9544 1.44478 12.7531 1.37377 14.7877 1.41045C16.4886 1.41338 18.22 1.4201 19.945 1.43756C20.9512 1.45254 22.0119 1.48582 22.9907 1.49164C23.321 1.50445 23.6603 1.52331 24.005 1.54804C24.4281 1.58389 24.8388 1.60342 25.2152 1.60559C26.4235 1.5754 27.7721 1.6017 29.1965 1.68324C29.7183 1.70102 30.2192 1.70701 30.692 1.70113C31.8105 1.67899 33.0231 1.69528 34.2977 1.74956C35.0899 1.78017 35.858 1.79617 36.5941 1.7974C36.8541 1.80075 37.0658 1.77504 37.3162 1.79451C39.5201 1.99823 41.0808 1.85108 43.0644 1.92942C44.0284 1.95127 44.9495 1.95133 45.8146 1.92961C47.5029 1.93066 49.2383 1.953 51.0137 1.99652C53.3616 2.06804 55.5372 2.04323 57.7789 2.07275C58.2215 2.07896 58.6489 2.0779 59.0578 2.06958C61.0473 2.01463 63.2081 2.02628 65.4875 2.10426C66.0052 2.11553 66.47 2.10175 66.8531 2.06381C67.2361 2.02586 67.5291 1.96456 67.7137 1.88374C67.7918 1.82828 67.7412 1.75623 67.5717 1.68151C67.2903 1.58608 66.9726 1.49258 66.6238 1.40254L53.935 1.10043C53.402 1.08466 52.8823 1.07616 52.3785 1.07499C50.8965 1.07236 49.369 1.04886 47.8035 1.0046C46.2565 0.963023 44.7787 0.970404 43.2799 0.957886C42.8385 0.953693 42.3853 0.9438 41.9224 0.928234C38.7931 0.805039 35.7417 0.729793 32.7897 0.703037C31.5477 0.69924 30.206 0.642701 28.9399 0.624375C27.6738 0.606049 25.9424 0.599339 24.4405 0.592197L19.7905 0.593294C18.8759 0.589648 17.9854 0.600527 17.0981 0.606034C16.0213 0.213016 15.6502 0.120896 14.2134 -0.0512913C13.7218 -0.114807 13.2218 -0.152711 12.772 -0.160565C11.3457 -0.129495 9.556 -0.258828 8.20341 -0.241705C7.38725 -0.250151 6.69469 -0.206491 6.19665 -0.115193C5.76431 -0.0435412 5.26992 0.0131548 4.72112 0.0540389C3.21778 -0.282178 3.08529 -0.500543 4.21615 -0.585518C4.52254 -0.605272 4.94457 -0.599162 5.16582 -0.641001C5.29277 -0.666481 5.46619 -0.681055 5.67227 -0.683573C5.87835 -0.686092 6.11138 -0.676491 6.3531 -0.655516C7.11596 -0.600496 7.83099 -0.587555 8.42643 -0.617997C8.9868 -0.658285 9.6737 -0.656677 10.4209 -0.613322C10.97 -0.545319 11.4526 -0.64134 11.9274 -0.669083C12.4022 -0.696825 12.7919 -0.74666 13.5335 -0.672116C13.6693 -0.657274 13.8042 -0.648362 13.9277 -0.646069C14.0512 -0.643775 14.1601 -0.648158 14.246 -0.658882C15.0426 -0.706891 15.9931 -0.701847 17.0204 -0.644163C18.5961 -0.587398 20.0744 -0.58527 21.4042 -0.637849C22.2002 -0.683855 22.8789 -0.765442 23.4137 -0.879426C23.5595 -0.91755 23.7759 -0.94041 24.0424 -0.945816C25.3803 -0.922032 26.833 -0.832525 28.3069 -0.683068C28.8621 -0.623182 29.4167 -0.575813 29.9586 -0.541969C31.0725 -0.466786 32.1498 -0.424657 33.1587 -0.416828C34.6247 -0.415587 36.151 -0.38666 37.7241 -0.33031C38.695 -0.298933 39.6304 -0.287353 40.5194 -0.295694C41.4331 -0.299626 42.4087 -0.275692 43.4241 -0.224449C44.4338 -0.182692 45.3236 -0.206752 45.9863 -0.293717C46.2045 -0.340579 46.3802 -0.396228 46.5102 -0.459623C45.0318 -0.665912 43.5029 -0.770752 42.2311 -0.75303C41.7481 -0.766694 41.347 -0.752899 40.838 -0.833251L40.8221 -0.806373C40.7208 -0.788934 40.568 -0.784818 40.3927 -0.794815C40.2175 -0.804811 40.0322 -0.828216 39.8719 -0.860575V-0.860575C39.9325 -0.962711 39.9898 -1.05947 40.0312 -1.12935C41.0002 -1.11703 41.941 -1.11802 42.8489 -1.13236C43.6142 -1.15297 44.6531 -0.97237 45.3155 -1.04035C46.6076 -0.955341 47.4302 -1.07272 48.5889 -1.03885C49.7475 -1.00498 51.0237 -0.893088 52.1823 -0.859218C53.1934 -0.840631 54.1751 -0.836592 55.122 -0.847117C55.4488 -0.86189 55.8256 -0.858425 56.2291 -0.836931C56.7965 -0.796492 57.3242 -0.789716 57.7518 -0.817383C58.1793 -0.84505 58.4894 -0.906047 58.6465 -0.993372C58.4986 -1.07517 58.2992 -1.18064 58.0693 -1.2899C58.4923 -1.37968 59.1346 -1.41748 59.9012 -1.39769L60.9843 -1.40202C61.2713 -1.39965 61.4907 -1.42392 61.5971 -1.46981C61.7035 -1.5157 61.6889 -1.57969 61.5561 -1.64856C59.5023 -1.99525 59.4267 -2.03347 57.9194 -1.81047L55.918 -1.9141L55.9517 -1.91569ZM83.0219 -0.96335L82.8694 -0.982236L83.0219 -0.96335ZM332.433 35.922L332.398 35.9812L332.436 35.9167L332.771 35.9582L332.794 35.9206L332.433 35.922ZM283.716 10.0044C283.242 9.93991 282.763 9.8806 282.282 9.82685C282.156 9.81852 282.039 9.81664 281.939 9.82137C281.839 9.8261 281.76 9.83729 281.709 9.85401C281.671 9.91852 281.939 9.96327 282.183 9.9935C282.491 10.0342 282.806 10.06 283.094 10.0684C283.383 10.0767 283.635 10.0673 283.825 10.041L284.101 10.0175L283.716 10.0044ZM39.4384 25.7265C39.7507 25.7373 40.0468 25.7391 40.3194 25.7317C41.529 25.6796 42.6872 25.6038 43.9273 25.5554C45.492 25.4327 47.29 25.3827 49.2539 25.4073C50.0211 25.4193 50.6693 25.3796 51.1228 25.2926C51.3942 25.2459 51.7446 25.2186 52.1525 25.2124L57.3443 25.0707C57.6652 25.0412 57.9427 25 58.1702 24.9479C57.7126 24.8912 57.4076 24.8535 57.2246 24.8308C56.8448 24.8244 56.5185 24.8417 56.2781 24.8809C56.0199 24.9473 55.5836 24.9736 55.0557 24.9545C54.5228 24.9388 54.003 24.9303 53.4992 24.9291C52.5477 24.9324 51.5897 24.9465 50.635 24.9552C50.2636 25.14 49.1673 25.0561 48.2285 25.038L47.5033 25.0462C45.1327 25.142 42.8682 25.2738 40.7208 25.441C40.3058 25.4693 39.9483 25.5144 39.6592 25.575C39.5503 25.6222 39.5154 25.6811 39.5573 25.747L39.4048 25.7281L39.4384 25.7265ZM145.3 43.3962C145.875 43.4088 146.474 43.4346 147.088 43.4734C147.561 43.5129 148.022 43.5369 148.454 43.5444C150.872 43.5859 153.391 43.6815 155.979 43.8302C156.317 43.8527 156.642 43.8637 156.942 43.8629L159.06 43.8251C159.727 43.8039 159.74 43.7824 159.254 43.4972C158.851 43.4419 158.443 43.3914 158.034 43.3461C157.79 43.3159 157.393 43.2668 157.301 43.313C156.735 43.4391 155.703 43.3574 154.834 43.3307C152.321 43.2618 149.729 43.16 147.192 43.0766C146.656 43.0562 146.136 43.0459 145.639 43.0458C145.33 43.0415 145.049 43.0495 144.806 43.0696C144.735 43.0716 144.676 43.0776 144.632 43.0871C144.588 43.0966 144.561 43.1094 144.552 43.1246C144.543 43.1399 144.552 43.1572 144.58 43.1756C144.607 43.1939 144.652 43.2127 144.711 43.2308C144.918 43.2943 145.158 43.3552 145.422 43.4113L145.3 43.3962ZM163.71 2.00204L166.186 1.96823C166.482 1.9646 166.734 1.92654 167.052 1.94282C168.747 1.9944 170.317 1.98004 171.694 1.90032C172.163 1.86779 172.711 1.86129 173.31 1.88117C175.141 1.94007 176.869 1.9425 178.446 1.88837C179.465 1.87751 180.419 1.84102 181.294 1.77945C181.361 1.76516 181.403 1.74576 181.417 1.72256C181.43 1.69937 181.416 1.67294 181.373 1.64506C181.362 1.62745 181.332 1.60851 181.285 1.58953C181.239 1.57056 181.176 1.55201 181.102 1.53516C181.028 1.51831 180.944 1.50357 180.857 1.49194C180.769 1.48031 180.679 1.47207 180.594 1.46779C179.489 1.38445 178.441 1.35542 177.534 1.38305C176.693 1.41611 175.788 1.42578 174.832 1.41192C173.917 1.40827 173.297 1.51606 172.167 1.43381C171.689 1.40673 171.267 1.41564 170.973 1.45907C170.381 1.53105 169.555 1.53505 168.642 1.47037C168.095 1.43763 167.573 1.42359 167.095 1.42879C165.935 1.45245 164.826 1.4998 163.751 1.54555C163.412 1.55613 163.05 1.55759 162.668 1.54989L157.286 1.46031C155.993 1.43283 154.702 1.39998 153.433 1.38703C152.395 1.35891 151.429 1.36772 150.569 1.41314C149.652 1.46088 148.652 1.48026 147.588 1.47092C145.935 1.49704 144.292 1.50704 142.493 1.50352C141.346 1.50568 140.172 1.49869 138.973 1.47717C138.367 1.44948 137.852 1.47203 137.528 1.5405C137.33 1.59687 136.866 1.55095 136.481 1.53786C134.427 1.41178 132.5 1.38191 130.836 1.45032C130.624 1.46147 130.39 1.4655 130.141 1.46236C128.538 1.46001 126.877 1.44473 125.339 1.44456C124.934 1.44987 124.552 1.46446 124.2 1.48813C124.237 1.52675 124.345 1.5686 124.5 1.60502C124.655 1.64143 124.846 1.66961 125.033 1.6837C126.489 1.79159 127.894 1.84859 129.19 1.85229C131.347 1.83855 133.607 1.86945 135.946 1.94466C137.76 2.02049 139.415 2.00452 140.786 1.89795C141.858 1.81844 143.253 1.84836 144.731 1.98257C145.363 2.04667 145.977 2.0723 146.488 2.05597C146.98 2.03453 147.545 2.03973 148.149 2.07125C149.423 2.13119 150.648 2.159 151.8 2.15412C152.926 2.13206 153.977 2.07178 155.134 2.05349C156.29 2.0352 158.052 2.04568 159.479 2.01461C160.905 1.98354 162.315 1.97936 163.71 2.00204ZM61.125 -1.14225C61.2557 -0.976037 61.7183 -0.872581 62.2159 -0.828261C63.9315 -0.631465 65.6276 -0.547723 67.0194 -0.591085C67.7712 -0.65157 68.7735 -0.628288 69.8293 -0.525811C71.0587 -0.419284 72.2077 -0.401618 73.074 -0.475925C73.2862 -0.488909 73.4487 -0.516357 73.547 -0.555825C73.5661 -0.588078 73.6011 -0.647208 73.6075 -0.657959C73.5165 -0.685225 73.4049 -0.710488 73.2813 -0.731801C73.1577 -0.753114 73.0254 -0.769905 72.8946 -0.78088L67.212 -0.971146L66.2217 -1.01301C64.4129 -1.1227 62.6894 -1.1664 61.125 -1.14225V-1.14225ZM72.3027 1.4885C73.1896 1.75991 73.1927 1.75452 73.6471 1.81656C75.8391 2.07428 78.0297 2.21339 79.9581 2.21736C80.3866 2.21658 80.7504 2.19038 81.0184 2.14097C81.1564 2.13427 81.2442 2.113 81.2627 2.08178C81.2812 2.05056 81.2289 2.01194 81.1172 1.97433L80.412 1.78312C79.1311 1.70034 77.8687 1.63457 76.6323 1.58619C75.1928 1.52907 73.917 1.52687 72.4247 1.5036L72.3027 1.4885ZM145.194 42.1944C146.02 42.5679 146.024 42.5625 147.407 42.6589C148.371 42.7272 149.306 42.7672 150.185 42.7779C151.259 42.7897 152.359 42.8106 153.43 42.8278C153.691 42.8397 153.913 42.8298 154.051 42.8001C154.19 42.7703 154.236 42.7229 154.18 42.6668C154.04 42.6061 153.82 42.5472 153.557 42.5C153.293 42.4527 153.002 42.4197 152.73 42.4065L152.146 42.3976C151.437 42.379 150.7 42.3512 150.015 42.3471C149.57 42.3626 149.055 42.3507 148.51 42.3122C147.965 42.2737 147.404 42.2097 146.872 42.1252L145.194 42.1944ZM76.7156 -0.653838C76.9363 -0.589148 77.1859 -0.527188 77.4577 -0.469611C78.5102 -0.310019 79.6242 -0.219377 80.5813 -0.215455C81.0339 -0.205569 81.4477 -0.240866 81.9084 -0.189573C82.7348 -0.121031 83.5356 -0.0845192 84.2677 -0.0820161C84.2677 -0.0820161 84.473 -0.0969826 84.5404 -0.100178L84.6805 -0.336702C84.334 -0.391496 83.9726 -0.436259 83.6129 -0.468932C82.406 -0.53186 81.22 -0.574882 80.0372 -0.62328C78.8544 -0.671679 78.442 -0.693912 77.6685 -0.7147C77.3235 -0.703273 77.0043 -0.682886 76.7156 -0.653838ZM50.5793 28.7508L52.1588 29.2349C52.6699 29.277 53.1473 29.2846 53.5185 29.2567C53.8897 29.2287 54.1343 29.1666 54.2151 29.0799C54.3451 29.0394 54.3582 28.9793 54.2514 28.9123C54.1446 28.8453 53.9263 28.7765 53.6423 28.7205C53.369 28.6541 53.057 28.5945 52.7255 28.5455C52.3941 28.4965 52.0504 28.4592 51.7156 28.4357L50.5793 28.7508ZM63.7296 26.3404C62.6966 26.2583 61.7085 26.2248 60.841 26.2423C60.2944 26.2903 59.5537 26.275 58.7709 26.1994C57.3473 26.0488 55.975 26.0071 54.9435 26.0831C54.9435 26.0831 54.9052 26.1476 54.7304 26.1664C54.5556 26.1851 55.2489 26.2306 55.4015 26.2495C56.52 26.2957 57.645 26.3312 58.6175 26.3477C59.2212 26.347 59.8598 26.3623 60.5223 26.3933C61.4338 26.441 62.2982 26.4565 63.0818 26.4391C63.0818 26.4391 63.385 26.4247 63.7264 26.3458L63.7296 26.3404ZM174.052 1.12496C173.559 1.03378 173.024 0.959683 172.487 0.908218C171.951 0.856754 171.427 0.829263 170.954 0.827799C170.592 0.823042 170.3 0.847114 170.122 0.896211C169.945 0.945307 169.893 1.01663 169.975 1.09889C170.341 1.14422 170.829 1.20467 171.104 1.23867C172.055 1.23534 172.867 1.19163 174.052 1.12496ZM266.417 8.80815C266.021 8.73475 265.585 8.67864 265.158 8.64621C264.731 8.61378 264.331 8.60635 264.004 8.62476C263.836 8.63275 263.95 8.71615 263.921 8.76453C263.903 8.7755 263.903 8.78914 263.922 8.80403C263.941 8.81891 263.978 8.8345 264.03 8.84915C264.082 8.8638 264.145 8.87697 264.215 8.88728C264.285 8.8976 264.357 8.90468 264.426 8.90779C264.855 8.9394 265.261 8.94881 265.606 8.93518C265.951 8.92155 266.225 8.88529 266.404 8.82965L266.417 8.80815ZM272.605 9.85736C272.544 9.81404 272.413 9.76891 272.238 9.73021C272.062 9.69152 271.853 9.66186 271.649 9.64668C271.289 9.64464 270.961 9.65665 270.679 9.68226C270.372 9.70201 270.593 9.8274 271.007 9.9018C271.183 9.93166 271.37 9.95495 271.555 9.96982C271.739 9.98469 271.916 9.99073 272.07 9.98746C272.225 9.98419 272.353 9.9717 272.445 9.95098C272.536 9.93026 272.589 9.90188 272.599 9.86811L272.605 9.85736ZM92.7811 -0.193179C91.8578 -0.347924 91.1471 -0.308995 90.3654 -0.37119C89.5837 -0.433385 89.3911 -0.439928 89.4959 -0.340405C89.6006 -0.240882 90.1365 -0.261066 90.472 -0.219508C90.9254 -0.164365 91.3814 -0.132701 91.7892 -0.128051C92.197 -0.1234 92.5405 -0.14595 92.7811 -0.193179V-0.193179ZM285.178 25.9899C284.689 25.9552 284.21 25.9307 283.748 25.9167C283.687 25.9311 283.649 25.9499 283.636 25.9721C283.623 25.9942 283.635 26.0193 283.672 26.0457C283.672 26.0457 283.985 26.1249 284.168 26.1475C284.842 26.2253 284.875 26.114 285.178 25.9899V25.9899ZM354.298 40.4074C354.629 40.5119 354.784 40.5829 355.049 40.633C355.17 40.6504 355.296 40.6631 355.417 40.67C355.537 40.677 355.65 40.678 355.745 40.6731C355.862 40.643 355.889 40.597 355.822 40.5441C355.822 40.5441 355.484 40.4504 355.356 40.4461C354.99 40.4239 354.635 40.4109 354.298 40.4074V40.4074ZM77.0652 -1.07793C76.3636 -1.16482 75.6925 -1.24794 75.2068 -1.14654C76.3208 -1.03741 76.3209 -1.0374 77.0652 -1.07793ZM88.4283 -0.0860247C87.7199 -0.271858 87.3042 -0.288722 86.9641 -0.26737C86.8918 -0.261992 86.844 -0.250005 86.8279 -0.23323C86.8117 -0.216455 86.8281 -0.195803 86.8746 -0.174395C86.9212 -0.152987 86.9952 -0.131992 87.0856 -0.114583C87.176 -0.0971738 87.2779 -0.0842976 87.3757 -0.0779068C87.7452 -0.0725574 88.0975 -0.0752735 88.4283 -0.0860247V-0.0860247ZM124.89 -0.00744346C124.905 -0.0343213 124.925 -0.0665741 124.742 -0.0892417C124.694 -0.100749 124.637 -0.110644 124.579 -0.117939C124.52 -0.125234 124.46 -0.129666 124.406 -0.130793C124.406 -0.130793 124.387 -0.0985388 124.374 -0.0770365L124.89 -0.00744346ZM150.209 44.6158L149.802 44.6404L149.985 44.663L150.468 44.6767L150.209 44.6158ZM293.678 9.43795C293.525 9.41906 293.373 9.40017 293.351 9.4378C293.318 9.44363 293.298 9.45204 293.292 9.46233C293.286 9.47261 293.294 9.48448 293.315 9.49693C293.315 9.49693 293.529 9.52338 293.621 9.53471L293.678 9.43795ZM269.925 9.73891C269.825 9.73675 269.734 9.73927 269.659 9.74632C269.659 9.74632 269.64 9.77857 269.64 9.77857L269.945 9.81635L269.925 9.73891ZM62.924 17.4239C62.8062 17.4043 62.6813 17.3888 62.558 17.3785L62.4054 17.3596C62.4054 17.3596 62.5693 17.4145 62.6608 17.4259C62.7523 17.4372 62.8261 17.4233 62.924 17.4239Z" fill="#DF6951"/>
</g>
</svg>
